<svg xmlns="http://www.w3.org/2000/svg" width="512" height="512" fill="none" viewBox="0 0 512 512"><g clip-path="url(#clip0_1_2)"><circle cx="256" cy="256" r="256" fill="#B23D41"/><path fill="#31373D" d="M245.5 406C245.5 417.404 240.97 428.342 232.906 436.406C224.842 444.47 213.904 449 202.5 449H138C126.596 449 115.658 444.47 107.594 436.406C99.5303 428.342 95 417.404 95 406V105C95 93.5957 99.5303 82.6585 107.594 74.5944C115.658 66.5303 126.596 62 138 62H202.5C213.904 62 224.842 66.5303 232.906 74.5944C240.97 82.6585 245.5 93.5957 245.5 105V406Z"/><path fill="#31373D" d="M417 423.444C417 430.222 414.321 436.722 409.552 441.515C404.783 446.308 398.316 449 391.571 449H353.429C346.684 449 340.217 446.308 335.448 441.515C330.679 436.722 328 430.222 328 423.444V244.556C328 237.778 330.679 231.278 335.448 226.485C340.217 221.692 346.684 219 353.429 219H391.571C398.316 219 404.783 221.692 409.552 226.485C414.321 231.278 417 237.778 417 244.556V423.444Z"/><path fill="#99AAB5" d="M379.484 195.317C376.438 190.496 371.602 187.083 366.04 185.827C360.478 184.572 354.645 185.578 349.824 188.624L340.736 194.365C335.915 197.411 332.502 202.247 331.247 207.809C329.992 213.372 330.997 219.205 334.043 224.025C337.089 228.846 341.924 232.259 347.487 233.514C353.049 234.77 358.882 233.764 363.703 230.718L372.791 224.976C377.612 221.931 381.025 217.095 382.28 211.533C383.535 205.97 382.53 200.137 379.484 195.317Z"/><path fill="#CCD6DD" d="M143.191 344.602C105.141 284.374 123.121 204.693 183.349 166.643C243.585 128.587 323.257 146.573 361.308 206.8C399.358 267.027 381.387 346.703 321.15 384.759C260.923 422.809 181.242 404.829 143.191 344.602Z"/><path fill="#F5F8FA" d="M179.544 321.635C167.362 302.352 163.338 279.02 168.359 256.77C173.379 234.521 187.033 215.178 206.316 202.995C225.598 190.813 248.931 186.79 271.18 191.81C293.429 196.831 312.772 210.484 324.955 229.767C337.137 249.05 341.161 272.382 336.14 294.631C331.119 316.88 317.466 336.224 298.183 348.406C278.901 360.589 255.568 364.612 233.319 359.592C211.07 354.571 191.726 340.917 179.544 321.635Z"/><path fill="#66757F" d="M302.75 311C300.803 310.997 298.893 310.466 297.225 309.463L243.475 277.213C241.882 276.259 240.565 274.909 239.649 273.294C238.733 271.68 238.251 269.856 238.25 268V192.75C238.25 189.899 239.383 187.165 241.399 185.149C243.415 183.133 246.149 182 249 182C251.851 182 254.585 183.133 256.601 185.149C258.617 187.165 259.75 189.899 259.75 192.75V261.915L308.297 291.027C310.317 292.236 311.884 294.074 312.758 296.26C313.631 298.446 313.763 300.858 313.133 303.127C312.503 305.395 311.146 307.394 309.271 308.816C307.395 310.238 305.104 311.006 302.75 311Z"/></g><defs><clipPath id="clip0_1_2"><rect width="512" height="512" fill="#fff"/></clipPath></defs></svg>